<?xml version="1.0" standalone="no"?>
<!DOCTYPE svg PUBLIC "-//W3C//DTD SVG 20010904//EN"
 "http://www.w3.org/TR/2001/REC-SVG-20010904/DTD/svg10.dtd">
<svg version="1.0" xmlns="http://www.w3.org/2000/svg"
 width="480.000000pt" height="480.000000pt" viewBox="0 0 480.000000 480.000000"
 preserveAspectRatio="xMidYMid meet">

<g transform="translate(0.000000,480.000000) scale(0.100000,-0.100000)"
fill="currentColor" stroke="none">
<path d="M975 4123 c3 -10 224 -396 490 -858 266 -463 487 -848 490 -856 3 -9
-186 -347 -490 -874 -272 -472 -495 -862 -495 -867 0 -4 193 -7 432 -6 l433 3
270 466 c148 256 277 475 285 487 14 21 27 0 285 -450 149 -259 277 -479 285
-490 14 -18 35 -18 448 -16 l433 3 -1003 1737 -1003 1737 -434 1 c-408 0 -433
-1 -426 -17z"/>
<path d="M2912 4033 c-61 -131 -93 -224 -123 -363 -20 -90 -23 -134 -23 -305
0 -226 15 -320 80 -506 37 -107 99 -239 112 -239 7 1 872 1501 872 1513 0 4
-195 7 -433 7 l-434 0 -51 -107z"/>
</g>
</svg>
